# xmcd
#
# Track frame offsets:
#	150
#	9905
#	22199
#	33599
#	42256
#	51029
#	65210
#	78733
#	95959
#	110356
#	118913
#	132064
#	144688
#	152233
#	164707
#	179824
#	191406
#
# Disc length: 2873 seconds
#
# Revision: 0
# Processed by: cddbd v1.4PL0 Copyright (c) Steve Scherf et al.
# Submitted via: EasyCDDAExtractor 4.6.9.1
#
DISCID=010b3711
DTITLE=The Byrds - Younger Than Yesterday
DYEAR=1900
DGENRE=
TTITLE0=So You Want To Be A Rock'n'Roll Star
TTITLE1=Have You Seen Her Face
TTITLE2=C.T.A.-102
TTITLE3=Renaissance Fair
TTITLE4=Time Between
TTITLE5=Everybody's Been Burned
TTITLE6=Thoughts And Words
TTITLE7=Mind Gardens
TTITLE8=My Back Pages
TTITLE9=The Girl With No Name
TTITLE10=Why
TTITLE11=It Happens Each Day
TTITLE12=Don't Make Waves
TTITLE13=My Back Pages (Alternate Version)
TTITLE14=Mind Gardens (Alternate Version)
TTITLE15=Lady Friend
TTITLE16=Turn! Turn! Turn!
EXTD=
EXTT0=
EXTT1=
EXTT2=
EXTT3=
EXTT4=
EXTT5=
EXTT6=
EXTT7=
EXTT8=
EXTT9=
EXTT10=
EXTT11=
EXTT12=
EXTT13=
EXTT14=
EXTT15=
EXTT16=
PLAYORDER=
